<?xml version="1.0" standalone="no"?>
<!DOCTYPE svg PUBLIC "-//W3C//DTD SVG 20010904//EN"
 "http://www.w3.org/TR/2001/REC-SVG-20010904/DTD/svg10.dtd">
<svg version="1.0" xmlns="http://www.w3.org/2000/svg"
 width="505.000000pt" height="505.000000pt" viewBox="0 0 505.000000 505.000000"
 preserveAspectRatio="xMidYMid meet">
<metadata>
Created by potrace 1.14, written by Peter Selinger 2001-2017
</metadata>
<g transform="translate(0.000000,505.000000) scale(0.100000,-0.100000)"
fill="#000000" stroke="none">
<path d="M2418 4694 c-3 -2 -43 -7 -89 -10 -125 -9 -154 -12 -154 -14 0 -2
-33 -9 -70 -14 -37 -5 -236 -56 -250 -65 -5 -3 -19 -7 -29 -8 -11 -2 -25 -8
-33 -14 -7 -6 -13 -9 -13 -6 0 15 -372 -158 -390 -182 -3 -3 -15 -12 -27 -18
-56 -31 -68 -39 -78 -48 -7 -6 -37 -28 -68 -49 -32 -22 -57 -43 -57 -47 0 -4
-9 -10 -19 -14 -32 -10 -266 -246 -341 -345 -19 -25 -38 -47 -43 -48 -4 -2 -5
-8 -1 -13 3 -5 1 -9 -4 -9 -11 0 -112 -151 -112 -168 0 -7 -4 -12 -9 -12 -5 0
-15 -16 -22 -35 -7 -19 -17 -35 -21 -35 -4 0 -8 -5 -8 -10 0 -6 -16 -42 -35
-80 -19 -39 -34 -73 -34 -75 -1 -3 -7 -20 -14 -38 -7 -17 -26 -68 -41 -112
-16 -44 -31 -87 -34 -95 -3 -8 -5 -18 -4 -21 0 -3 -5 -27 -13 -54 -8 -26 -12
-51 -10 -55 3 -5 0 -12 -6 -15 -5 -4 -8 -13 -5 -20 2 -7 2 -16 -2 -19 -6 -7
-8 -14 -18 -86 -3 -25 -8 -54 -10 -65 -23 -117 -21 -530 3 -569 4 -5 7 -24 9
-40 6 -96 78 -365 116 -439 5 -10 11 -27 13 -37 6 -31 146 -310 156 -310 5 0
9 -6 9 -13 0 -12 92 -152 109 -167 3 -3 33 -39 65 -80 89 -112 243 -263 351
-343 28 -20 55 -40 60 -45 6 -4 28 -19 50 -32 22 -13 42 -27 45 -30 3 -4 25
-17 50 -31 25 -13 47 -26 50 -30 10 -11 220 -109 234 -109 8 0 16 -3 18 -7 3
-7 170 -67 193 -69 6 0 17 -4 25 -7 22 -9 129 -35 171 -41 20 -3 42 -8 50 -11
8 -3 38 -7 65 -9 28 -1 55 -5 60 -8 13 -7 109 -12 259 -12 169 0 284 11 420
40 136 29 179 39 194 48 6 4 23 10 38 12 15 3 33 10 40 16 7 6 13 8 13 5 0 -6
114 37 190 71 25 12 49 21 54 21 5 -1 12 3 15 8 3 5 31 23 61 39 30 16 99 58
154 94 54 36 106 70 115 75 9 6 18 12 21 15 3 3 34 30 70 60 79 67 178 166
245 244 28 32 56 65 63 72 6 7 12 15 12 18 0 6 23 36 46 60 6 6 13 16 15 21 2
6 25 42 52 82 26 39 47 76 47 82 0 6 5 11 10 11 6 0 10 9 10 19 0 11 4 22 9
25 10 6 53 91 52 101 -1 3 6 20 16 38 9 17 18 34 18 37 0 3 6 15 13 27 6 12
13 30 15 40 2 10 11 36 21 58 9 21 18 46 20 55 2 8 6 22 9 30 11 28 40 135 42
157 2 12 6 34 9 50 20 89 20 89 33 193 9 77 9 413 -1 485 -3 28 -8 66 -11 85
-2 19 -6 46 -9 60 -29 129 -37 162 -51 210 -9 30 -17 60 -19 65 -6 25 -30 93
-41 120 -8 17 -28 64 -45 105 -38 89 -110 224 -122 228 -4 2 -8 8 -8 14 0 5
-13 29 -30 53 -16 24 -30 46 -30 49 0 6 -13 22 -56 70 -13 14 -21 26 -19 26 5
0 -26 39 -52 66 -7 7 -13 18 -13 24 0 6 -4 8 -10 5 -5 -3 -10 -1 -10 4 0 11
-146 161 -210 216 -65 56 -128 105 -135 105 -3 0 -18 11 -33 25 -15 14 -33 25
-40 25 -7 0 -15 7 -18 15 -4 8 -13 15 -20 15 -8 0 -24 9 -36 20 -12 11 -28 20
-35 20 -7 0 -13 5 -13 12 0 6 -3 8 -6 5 -4 -4 -20 3 -35 14 -16 11 -29 17 -29
12 0 -4 -4 -3 -8 3 -10 17 -249 126 -282 129 -3 0 -9 3 -15 6 -5 4 -23 10 -40
14 -16 5 -34 10 -40 11 -55 19 -199 52 -206 49 -4 -3 -10 -1 -14 5 -3 5 -17
10 -31 10 -14 0 -34 5 -45 10 -13 8 -19 7 -19 0 0 -7 -6 -8 -19 -1 -10 6 -63
13 -117 16 -54 3 -110 6 -124 8 -14 2 -35 0 -48 -5 -15 -5 -21 -4 -17 2 4 6
-2 7 -17 1 -14 -5 -31 -5 -40 0 -8 5 -17 6 -20 3z m257 -304 c12 -4 29 -4 38
1 11 7 17 6 17 -1 0 -5 17 -10 38 -10 20 0 57 -5 82 -11 25 -6 54 -12 65 -14
11 -2 31 -6 45 -10 14 -3 30 -7 35 -9 8 -2 91 -27 135 -41 3 -1 14 -5 25 -9
11 -4 34 -13 50 -18 17 -6 62 -26 100 -44 39 -18 77 -34 85 -36 8 -2 20 -10
27 -18 6 -8 15 -15 20 -15 4 0 33 -16 63 -35 30 -19 59 -37 65 -39 5 -2 14 -8
20 -12 5 -5 46 -37 90 -71 78 -61 254 -231 308 -298 63 -79 154 -222 207 -325
55 -106 123 -267 123 -292 0 -7 4 -13 9 -13 4 0 7 -3 6 -7 -1 -5 4 -31 11 -59
7 -29 14 -60 16 -70 2 -11 4 -20 4 -21 2 -6 4 -15 17 -85 24 -128 32 -307 19
-482 -3 -43 -7 -81 -9 -85 -2 -3 -7 -35 -11 -71 -4 -36 -10 -69 -13 -75 -4 -5
-7 -18 -8 -27 -1 -10 -2 -19 -3 -20 -2 -2 -5 -14 -7 -28 -8 -46 -73 -229 -106
-298 -17 -37 -32 -69 -33 -72 -10 -27 -21 -48 -33 -62 -8 -10 -12 -18 -9 -18
6 0 -31 -61 -53 -87 -5 -7 -10 -16 -10 -20 0 -13 -133 -187 -187 -245 -42 -45
-72 -75 -189 -186 -12 -12 -28 -22 -33 -22 -5 0 -17 -10 -25 -22 -9 -12 -16
-19 -16 -15 0 5 -6 2 -14 -5 -24 -23 -51 -43 -87 -62 -18 -11 -40 -26 -47 -33
-7 -7 -20 -13 -28 -13 -8 0 -14 -4 -14 -10 0 -5 -5 -10 -11 -10 -6 0 -23 -9
-39 -20 -15 -11 -30 -17 -34 -13 -3 3 -6 1 -6 -5 0 -6 -18 -17 -40 -23 -22 -7
-40 -17 -40 -22 0 -6 -3 -7 -7 -4 -3 4 -12 2 -19 -3 -6 -6 -20 -13 -30 -15
-11 -3 -73 -23 -138 -45 -66 -22 -129 -42 -140 -45 -12 -2 -21 -4 -21 -5 0 -1
-9 -3 -20 -4 -11 -2 -33 -6 -50 -9 -16 -4 -52 -9 -80 -13 -27 -3 -61 -8 -75
-10 -39 -7 -351 -7 -385 0 -16 3 -55 8 -85 11 -30 3 -68 10 -85 15 -16 5 -43
11 -60 13 -16 2 -37 6 -45 10 -8 3 -58 19 -110 36 -118 39 -108 36 -150 51
-52 20 -278 137 -290 151 -3 3 -27 21 -55 39 -27 19 -51 37 -53 42 -2 4 -8 8
-13 8 -13 0 -25 11 -180 155 -98 91 -282 318 -270 334 1 2 -2 7 -7 10 -18 11
-132 228 -132 251 0 5 -4 10 -8 10 -5 0 -9 6 -10 13 0 6 -15 50 -32 97 -18 47
-34 94 -36 105 -9 38 -12 50 -14 55 -1 3 -3 10 -4 15 -1 6 -5 17 -8 25 -3 8
-11 47 -17 85 -6 39 -14 84 -17 100 -3 17 -7 54 -7 82 -1 29 -6 53 -10 53 -5
0 -6 4 -3 9 4 5 8 83 10 173 4 155 9 218 20 256 3 9 8 33 11 52 3 19 8 49 12
65 10 42 10 44 13 50 1 3 3 8 4 13 2 4 8 25 14 47 6 22 12 43 12 47 0 4 9 28
20 53 11 25 17 45 14 45 -2 0 3 11 12 25 9 14 13 25 9 25 -5 0 -1 8 7 18 9 9
19 27 22 39 9 28 104 202 117 213 3 3 14 21 25 40 10 19 24 40 29 46 6 6 19
23 30 39 11 15 28 36 38 47 9 10 17 20 17 23 0 3 26 32 59 65 32 32 56 62 53
65 -3 3 -1 5 5 5 6 0 34 23 62 50 28 28 54 50 57 50 3 0 15 10 28 23 12 12 39
33 59 47 20 14 37 28 37 33 0 4 5 7 10 7 6 0 33 16 60 35 27 19 54 35 60 35 5
0 10 5 10 10 0 6 6 10 13 10 7 0 29 11 48 25 20 13 39 22 41 19 3 -2 11 2 18
11 7 8 21 15 31 15 9 0 24 6 31 13 7 8 25 17 40 20 15 4 40 12 55 19 15 6 30
12 33 13 3 1 12 4 20 8 17 6 89 30 105 33 6 2 19 5 30 8 105 28 109 29 265 51
97 14 354 17 385 5z"/>
<path d="M2389 3995 c-2 -2 -29 -6 -59 -9 -102 -12 -133 -17 -144 -24 -6 -3
-15 -7 -21 -7 -18 -2 -69 -16 -110 -32 -22 -8 -41 -15 -42 -14 -2 0 -24 -9
-50 -20 -90 -39 -98 -42 -105 -41 -5 1 -8 -2 -8 -8 0 -5 -7 -10 -15 -10 -8 0
-15 -3 -15 -8 0 -4 -15 -14 -32 -21 -30 -13 -85 -48 -98 -61 -3 -3 -18 -14
-33 -23 -58 -37 -218 -191 -267 -257 -14 -18 -37 -49 -52 -67 -15 -19 -30 -43
-33 -53 -3 -10 -12 -21 -20 -24 -14 -5 -191 -10 -210 -6 -5 1 -12 2 -15 1 -3
-1 -41 -3 -84 -4 l-80 -2 -2 -365 c-3 -563 -6 -1123 -5 -1142 1 -16 19 -17
202 -17 111 0 202 -1 203 -3 1 -2 17 -25 36 -53 93 -135 220 -264 339 -344 20
-14 38 -27 41 -31 3 -4 12 -9 20 -13 8 -4 33 -18 55 -31 49 -31 137 -72 148
-68 4 1 7 -2 7 -6 0 -7 91 -45 110 -47 3 0 19 -5 35 -12 17 -6 53 -16 80 -23
28 -7 57 -14 65 -17 8 -3 31 -7 50 -9 19 -1 58 -6 85 -10 88 -11 345 -8 345 5
0 3 12 7 28 7 36 2 76 10 140 28 29 8 53 14 55 15 31 2 224 86 307 132 101 57
241 169 330 264 54 57 122 145 113 145 -5 0 0 5 10 11 10 6 22 22 27 35 11 27
-4 26 242 25 87 -1 157 2 157 7 -1 4 -1 9 0 12 1 3 4 343 6 756 l5 752 -38 0
c-20 0 -108 1 -195 1 -150 1 -159 2 -164 21 -3 11 -9 20 -13 20 -5 0 -19 19
-33 43 -61 103 -248 286 -379 370 -46 29 -241 130 -258 133 -3 0 -18 6 -33 12
-16 7 -34 12 -41 12 -7 0 -16 3 -20 8 -4 4 -11 7 -14 8 -12 1 -67 16 -82 21
-17 7 -27 8 -90 18 -25 3 -52 9 -60 12 -17 6 -316 14 -321 8z"/>
</g>
</svg>
